<?xml version="1.0" encoding="UTF-8"?><svg id="uuid-526da7b1-49aa-40a0-b3c5-b3ffbe564af1" xmlns="http://www.w3.org/2000/svg" viewBox="0 0 34.49 77.42"><g id="uuid-152b4b8e-6cbf-48f1-b5cd-a75feeca5026"><path d="M4.43,66.51c1.59-.54,3.33-.93,4.34-.97,1.05-.08,15.87-.08,16.96,0,1.12,.08,2.67,.46,4.34,.97l1.7,4.14c-.43-.08-.81-.15-1.24-.19h0c-1.2-.19-2.28-.39-2.83-.39H6.79c-.77,0-2.44,.27-4.06,.58l1.7-4.14ZM0,77.42c1.63-.31,3.29-.58,4.06-.58H30.43c.54,0,1.63,.19,2.83,.39h0c.43,.04,.81,.12,1.24,.19l-1.7-4.14c-1.66-.5-3.21-.89-4.34-.97s-21.37-.08-22.41,0c-1.01,.04-2.75,.43-4.34,.97l-1.7,4.14ZM18.6,2.09c-.08-.04-.15-.08-.23-.12-.89-.43-1.97-1.08-3.21-1.97l-.04,4.18c.97,.81,1.9,1.51,2.79,2.05-.35,.15-.66,.35-1.01,.54-2.71,.15-4.99-.12-5.88-.19h-.04c-.97-.12-2.21-.35-3.72-.74l1.43,3.95c.97,.35,1.82,.62,2.67,.81-.46,.43-.89,.85-1.32,1.28-2.36,1.16-4.45,1.82-5.26,2.09h-.04c-.93,.31-2.17,.58-3.68,.81l2.86,3.02c.93-.08,1.74-.15,2.52-.27,0,.04-.04,.08-.04,.15-.81,2.13-1.05,4.34-1.05,6.43v.08c.12,2.09,.43,4.41,1.05,6.85h0l1.08,4.06,.04,.12h0s0,.04,.04,.08c.04,.08,.08,.19,.12,.35,.12,.31,.27,.77,.43,1.39,.39,1.28,.89,3.17,1.43,5.69,.93,4.41-.39,11.07-4.49,21.29l4.92-1.05c4.1-10.18,5.34-15.29,4.1-21.21-.54-2.63-1.08-4.68-1.51-6.04-.19-.7-.39-1.2-.5-1.59-.08-.19-.12-.31-.15-.43v-.04l-1.05-3.83c-.54-2.05-.81-4.06-.89-5.85,0-1.78,.19-3.33,.74-4.72,.58-1.55,1.43-2.94,2.59-4.18l.04-.04,.04-.04c1.12-1.32,2.75-2.52,5.03-3.83h0c1.35-.81,1.59-.93,3.29-1.55s3.76-1.24,5.26-1.66l-1.08-4.26s-.08,0-.12,.04c-3.1,.39-6.04-1.12-7.16-1.66Zm9.64,10.8h-1.63c-.85,.12-1.63,.35-2.44,.62-.19,.04-.35,.12-.54,.15-.31,.08-1.51,.58-2.48,1.16-1.59,.93-2.83,1.86-3.76,2.9-.93,1.01-1.59,2.09-2.05,3.29-.46,1.2-.58,2.44-.58,3.76,.08,1.32,.27,2.75,.66,4.26l5.65,21.06c.46,1.78,.89,3.21,1.2,4.26,.31,1.12,.5,2.09,.58,3.02s.08,1.94,0,2.9c-.04,1.01-.27,2.25-.58,3.76l3.87-1.59c.46-1.51,.81-2.83,.93-4.06,.12-1.2,.04-2.36-.08-3.48-.15-1.12-.43-2.32-.74-3.48l-.15-.58c-.31-1.05-.62-2.25-.97-3.56l-3.95-14.94h9.64s.31-1.12,.54-1.74,1.01-1.78,1.01-1.78h-12.27l-.54-2.05c-.27-.85-.39-1.63-.5-2.36l-.04-.19c-.08-.81,0-1.51,.19-2.25,.19-.74,.58-1.39,1.12-2.05s1.7-1.43,2.25-1.78c.97-.58,1.94-1.01,3.02-1.32l2.48,9.14h3.56l-3.41-13.05Z" fill="#eb3024"/></g></svg>