<?xml version="1.0" encoding="UTF-8"?><svg id="uuid-fa6313f0-c68f-43d1-8f94-87df38238f3e" xmlns="http://www.w3.org/2000/svg" viewBox="0 0 596.14 183.99"><g id="uuid-8555f8e6-cb88-4717-8f68-cd4f4135b335"><path d="M117.76,151.89c-6.07,0-11.87-1.84-17.11-5.43-5.34-3.59-9.48-8.56-12.6-15-2.21-4.32-3.86-8.92-4.97-13.71-1.1-4.88-1.38-9.2-.74-13.25,.64-4.05,2.48-7.36,5.43-9.94,2.94-2.67,7.45-3.86,13.52-3.86s11.87,1.84,17.11,5.43c5.34,3.59,9.48,8.56,12.6,15,2.21,4.32,3.86,8.92,4.97,13.71,1.1,4.88,1.38,9.2,.74,13.25-.64,4.05-2.48,7.36-5.43,9.94-2.85,2.48-7.45,3.86-13.52,3.86Zm-2.58-8.83c3.4,0,5.89-.92,7.64-2.94,1.75-1.84,2.67-4.32,2.94-7.45,.28-3.13,0-6.35-.74-9.94-.74-3.77-2.21-7.18-3.86-10.58-1.84-3.77-4.23-6.9-6.99-9.02-2.85-2.21-6.26-3.4-10.12-3.4-3.4,0-5.89,.92-7.64,2.94-1.75,1.84-2.67,4.32-2.94,7.45-.28,2.94,0,6.35,.74,9.94,.74,3.77,2.21,7.18,3.86,10.58,1.84,3.77,4.23,6.9,6.99,9.02,2.58,2.3,5.98,3.4,10.12,3.4Zm33.76-51.15c-3.13,.64-5.98,1.38-8.46,2.48l14.54,56.12h10.49l-12.79-49.4c.92-.46,2.21-.74,3.59-.92,1.38-.09,2.94-.28,4.51-.28,1.75,0,3.77,.18,5.8,.46,2.02,.28,3.96,.74,5.8,1.38l-1.56-9.02c-.55-.18-1.38-.46-2.3-.64-1.01-.37-2.02-.46-3.31-.64-1.29-.28-2.48-.46-3.59-.46-1.29-.18-2.21-.18-3.13-.18-3.5,0-6.72,.28-9.57,1.1Zm70.01,59.98c-3.77,0-7.36-.46-10.76-1.56-3.31-1.1-6.35-2.67-9.2-4.51-2.85-1.84-5.34-4.23-7.45-6.72-2.21-2.48-3.86-5.34-5.34-8.1-2.67-5.34-4.32-10.3-5.15-15.09-.74-4.88-.74-9.2,.28-12.97,1.1-3.77,3.13-6.72,6.26-8.92,3.13-2.21,7.36-3.31,12.6-3.31,3.13,0,5.89,.46,8.56,1.29,2.67,.83,4.97,1.84,6.99,3.31,2.02,1.38,3.86,2.94,5.43,4.69,1.56,1.75,2.85,3.59,3.77,5.43,1.75,3.59,2.67,6.53,2.48,8.92,0,2.48-.74,4.51-2.02,6.07-1.29,1.75-3.13,2.94-5.43,3.77-2.3,.74-4.97,1.56-7.64,2.21-2.85,.46-5.61,.92-8.74,1.1-2.94,.18-5.89,.28-8.56,.46,.18,.64,.46,1.1,.64,1.38s.28,.64,.46,.92c.92,1.75,1.84,3.31,3.13,4.88s2.67,2.85,4.32,4.05c1.75,1.1,3.77,2.02,6.07,2.85,2.3,.64,5.15,.92,8.28,.92,1.38,0,2.85-.18,4.23-.46,1.38-.28,2.67-.64,3.86-.92,1.29-.46,2.21-.74,3.13-1.29,.92-.46,1.38-.74,1.75-1.29l5.34,8.92c-1.1,.74-3.13,1.75-5.89,2.67-3.31,.83-6.9,1.29-11.41,1.29Zm-26.68-32.11c4.23-.18,8.1-.46,11.5-.74,3.4-.46,6.07-1.1,8.28-2.21,2.21-.92,3.4-2.3,4.05-4.05,.64-1.75,.18-3.86-1.1-6.72-.28-.64-.74-1.38-1.38-2.21-.64-.74-1.38-1.38-2.3-2.02s-2.02-1.1-3.4-1.56c-1.38-.46-2.85-.64-4.51-.64-2.67,0-4.88,.64-6.53,1.75s-2.94,2.67-3.86,4.32c-.92,1.84-1.38,3.86-1.38,6.35-.28,2.48,.09,5.06,.64,7.73Zm50.78-27.88c-3.13,.64-5.98,1.38-8.46,2.48l14.54,56.12h10.49l-12.79-49.4c.92-.46,2.21-.74,3.59-.92,1.38-.09,2.94-.28,4.51-.28,1.75,0,3.77,.18,5.8,.46,2.02,.28,3.96,.74,5.8,1.38l-1.56-9.02c-.55-.18-1.38-.46-2.3-.64-1.01-.37-2.02-.46-3.31-.64-1.1-.28-2.3-.46-3.4-.46-1.29-.18-2.21-.18-3.13-.18-3.4,0-6.72,.28-9.75,1.1Zm73.05,59.34c1.56-.46,2.94-1.1,4.05-1.75,1.29-.64,2.21-1.47,2.85-2.21,.64-.74,1.29-1.56,1.75-2.3,.92,1.2,1.75,2.3,2.67,3.4,.92,1.01,1.75,2.02,2.48,2.76l8.56-1.38c-1.66-2.02-3.22-3.86-4.32-5.61-1.1-1.75-2.02-3.4-2.94-5.15-.74-1.66-1.56-3.4-2.02-4.97-.64-1.56-1.1-3.22-1.56-4.97l-9.48-36.98h-10.49l9.38,35.97c.37,1.56,.83,2.94,1.29,4.23,.46,1.29,1.1,2.48,1.56,3.77-.83,1.93-2.02,3.5-3.77,4.88-1.66,1.38-4.14,2.02-7.45,2.02-1.84,0-3.59-.09-4.97-.74-1.56-.46-2.76-1.29-4.05-2.21-1.29-1.01-2.21-2.02-3.13-3.31-.92-1.2-1.66-2.48-2.3-3.86-1.1-2.3-1.84-4.69-2.48-6.99s-1.1-4.32-1.56-6.07l-7.18-27.6h-10.49l7.64,29.9c.46,1.93,1.1,3.96,1.75,5.8,.55,1.93,1.38,3.96,2.3,5.8,1.2,2.48,2.76,4.97,4.51,7.18,1.66,2.21,3.68,4.05,5.89,5.8,2.21,1.56,4.69,2.94,7.36,3.86,2.76,.92,5.7,1.38,9.02,1.38,2.02,0,3.96-.28,5.15-.64Zm29.99-50.32c1.1-.46,2.3-.74,4.05-.92,1.75-.09,3.5-.28,5.34-.28,4.51,0,8.1,.92,10.76,2.94,2.67,2.02,4.69,4.51,6.26,7.45,.92,2.02,1.66,4.05,2.3,6.26,.64,2.12,1.29,4.32,1.75,6.35l7.18,27.6h10.49l-7.64-29.9c-.46-1.93-1.1-3.96-1.75-5.8-.74-1.84-1.38-3.68-2.3-5.43-1.47-2.58-3.04-5.15-4.88-7.45-1.93-2.21-3.96-4.23-6.26-5.8-2.39-1.56-4.88-2.85-7.82-3.77-2.85-.92-5.98-1.38-9.38-1.38-3.13,0-6.53,.28-10.3,.92-3.68,.64-6.99,1.38-9.94,2.48l14.54,56.12h10.49l-12.88-49.4Zm59.71,0c1.1-.46,2.3-.74,4.05-.92,1.75-.09,3.5-.28,5.34-.28,4.51,0,8.1,.92,10.76,2.94,2.67,2.02,4.69,4.51,6.26,7.45,.92,2.02,1.66,4.05,2.3,6.26,.64,2.12,1.29,4.32,1.75,6.35l7.18,27.6h10.49l-7.64-29.9c-.46-1.93-1.1-3.96-1.75-5.8-.74-1.84-1.38-3.68-2.3-5.43-1.47-2.58-3.04-5.15-4.88-7.45-1.93-2.21-3.96-4.23-6.26-5.8-2.39-1.56-4.88-2.85-7.82-3.77-2.85-.92-5.98-1.38-9.38-1.38-3.13,0-6.53,.28-10.3,.92-3.68,.64-6.99,1.38-9.94,2.48l14.54,56.12h10.49l-12.88-49.4Zm87.58,50.97c-3.77,0-7.36-.46-10.76-1.56-3.31-1.1-6.35-2.67-9.2-4.51-2.85-1.84-5.34-4.23-7.45-6.72-2.21-2.48-3.86-5.34-5.34-8.1-2.67-5.34-4.32-10.3-5.15-15.09-.74-4.88-.74-9.2,.28-12.97,1.1-3.77,3.13-6.72,6.26-8.92,3.13-2.21,7.36-3.31,12.6-3.31,3.13,0,5.89,.46,8.56,1.29,2.67,.74,4.97,1.84,6.99,3.31,2.02,1.38,3.86,2.94,5.43,4.69,1.56,1.75,2.76,3.59,3.77,5.43,1.75,3.59,2.67,6.53,2.48,8.92,0,2.48-.74,4.51-2.02,6.07-1.29,1.75-3.13,2.94-5.43,3.77-2.3,.92-4.97,1.56-7.64,2.21-2.76,.46-5.61,.92-8.74,1.1-2.94,.18-5.89,.28-8.56,.46,.18,.64,.46,1.1,.64,1.38s.28,.64,.46,.92c.92,1.75,1.84,3.31,3.13,4.88s2.67,2.85,4.32,4.05c1.75,1.1,3.77,2.02,6.07,2.85,2.3,.64,5.15,.92,8.28,.92,1.38,0,2.85-.18,4.23-.46s2.67-.64,3.86-.92c1.29-.46,2.21-.74,3.13-1.29,.92-.46,1.38-.74,1.75-1.29l5.34,8.92c-1.1,.74-3.13,1.75-5.89,2.67-3.13,.83-6.9,1.29-11.41,1.29Zm-26.68-32.11c4.23-.18,8.1-.46,11.5-.74,3.4-.46,6.07-1.1,8.28-2.21,2.21-.92,3.4-2.3,4.05-4.05,.64-1.75,.18-3.86-1.1-6.72-.28-.64-.74-1.38-1.38-2.21-.64-.83-1.38-1.38-2.3-2.02s-2.02-1.1-3.4-1.56-2.76-.64-4.51-.64c-2.67,0-4.88,.64-6.53,1.75-1.75,1.1-2.94,2.67-3.86,4.32-.92,1.84-1.38,3.86-1.38,6.35-.28,2.48,.09,5.06,.64,7.73Zm50.78-27.88c-3.13,.64-5.98,1.38-8.46,2.48l14.54,56.12h10.49l-12.79-49.4c.92-.46,2.21-.74,3.59-.92,1.38-.09,2.94-.28,4.51-.28,1.75,0,3.77,.18,5.8,.46,2.02,.28,3.96,.74,5.8,1.38l-1.56-9.02c-.55-.18-1.38-.46-2.3-.64-1.01-.37-2.02-.46-3.31-.64-1.1-.28-2.3-.46-3.4-.46-1.29-.18-2.21-.18-3.13-.18-3.4,0-6.72,.28-9.75,1.1Zm52.99,51.06c-1.75-.37-3.31-.64-4.88-1.1s-2.94-.92-4.05-1.38c-1.29-.46-2.21-.83-2.85-1.1l.18,8.56c.74,.37,1.66,.83,2.94,1.29,1.2,.46,2.76,.92,4.51,1.38,1.66,.55,3.68,1.01,5.89,1.29,2.21,.28,4.69,.46,7.18,.46,3.5,0,6.44-.55,8.92-1.29,2.48-.74,4.42-2.02,5.8-3.59,1.38-1.56,2.02-3.59,2.02-5.89s-.74-5.15-2.3-8.28c-1.1-2.21-2.21-4.05-3.59-5.61-1.38-1.56-2.76-2.94-4.51-4.05-1.56-1.1-3.4-2.21-5.43-3.13-2.02-1.01-4.23-1.93-6.53-2.85-3.68-1.38-6.81-2.76-9.02-4.05-2.21-1.2-3.96-2.94-4.88-4.97-.92-1.75-1.29-3.13-1.1-4.23,.09-1.1,.64-2.12,1.38-2.85,.83-.83,1.93-1.29,3.13-1.56,1.2-.28,2.67-.46,4.05-.46,2.85,0,5.61,.28,8.28,.92,2.76,.55,4.69,1.2,6.07,1.84l-.28-8.56c-1.38-.64-3.59-1.29-6.72-2.02-3.04-.83-6.35-1.1-9.94-1.1-7.73,0-12.79,1.75-15.09,5.15-2.3,3.4-2.21,7.91,.64,13.52,1.1,2.21,2.39,4.05,3.77,5.61,1.38,1.56,2.76,2.94,4.51,4.05,1.56,1.1,3.31,2.21,5.15,2.94,1.84,.74,3.68,1.75,5.89,2.48,2.21,.74,4.05,1.56,5.61,2.3,1.56,.83,2.94,1.47,4.23,2.21,1.1,.55,2.21,1.56,2.94,2.3,.74,.74,1.38,1.84,2.02,2.94,.74,1.66,1.1,3.22,.92,4.32-.37,1.29-.83,2.21-1.75,2.85-.92,.64-2.21,1.1-3.59,1.38-1.38,.28-2.94,.46-4.51,.46-1.66,0-3.59-.09-5.06-.18ZM44.25,4.97c-.18-.09-.37-.18-.55-.28-2.12-1.01-4.69-2.58-7.64-4.69l-.09,9.94c2.3,1.93,4.51,3.59,6.62,4.88-.83,.37-1.56,.83-2.39,1.29-6.44,.37-11.87-.28-13.98-.46h-.09c-2.3-.28-5.24-.83-8.83-1.75l3.4,9.38c2.3,.83,4.32,1.47,6.35,1.93-1.1,1.01-2.12,2.02-3.13,3.04-5.61,2.76-10.58,4.32-12.51,4.97h-.09c-2.21,.74-5.15,1.38-8.74,1.93l6.81,7.18c2.21-.18,4.14-.37,5.98-.64,0,.09-.09,.18-.09,.37-1.93,5.06-2.48,10.3-2.48,15.27v.18c.28,4.97,1.01,10.49,2.48,16.28h0l2.58,9.66,.09,.28h0s0,.09,.09,.18c.09,.18,.18,.46,.28,.83,.28,.74,.64,1.84,1.01,3.31,.92,3.04,2.12,7.54,3.4,13.52,2.21,10.49-.92,26.31-10.67,50.6l11.68-2.48c9.75-24.2,12.7-36.34,9.75-50.41-1.29-6.26-2.58-11.13-3.59-14.35-.46-1.66-.92-2.85-1.2-3.77-.18-.46-.28-.74-.37-1.01v-.09l-2.48-9.11c-1.29-4.88-1.93-9.66-2.12-13.89,0-4.23,.46-7.91,1.75-11.22,1.38-3.68,3.4-6.99,6.16-9.94l.09-.09,.09-.09c2.67-3.13,6.53-5.98,11.96-9.11h0c3.22-1.93,3.77-2.21,7.82-3.68,4.05-1.47,8.92-2.94,12.51-3.96l-2.58-10.12c-.09,0-.18,0-.28,.09-7.36,.92-14.35-2.67-17.02-3.96ZM6.53,167.89c3.86-.74,7.82-1.38,9.66-1.38h49.68c1.29,0,3.86,.46,6.72,.92h0c1.01,.09,1.93,.28,2.94,.46l-4.05-9.84c-3.96-1.2-7.64-2.12-10.3-2.3-2.58-.18-37.81-.18-40.29,0-2.39,.09-6.53,1.01-10.3,2.3l-4.05,9.84ZM0,183.99c3.86-.74,7.82-1.38,9.66-1.38h62.65c1.29,0,3.86,.46,6.72,.92h0c1.01,.09,1.93,.28,2.94,.46l-4.05-9.84c-3.96-1.2-7.64-2.12-10.3-2.3s-50.78-.18-53.27,0c-2.39,.09-6.53,1.01-10.3,2.3l-4.05,9.84ZM67.16,30.63h-3.86c-2.02,.28-3.86,.83-5.8,1.47-.46,.09-.83,.28-1.29,.37-.74,.18-3.59,1.38-5.89,2.76-3.77,2.21-6.72,4.42-8.92,6.9-2.21,2.39-3.77,4.97-4.88,7.82-1.1,2.85-1.38,5.8-1.38,8.92,.18,3.13,.64,6.53,1.56,10.12l13.43,50.05c1.1,4.23,2.12,7.64,2.85,10.12,.74,2.67,1.2,4.97,1.38,7.18,.18,2.21,.18,4.6,0,6.9-.09,2.39-.64,5.34-1.38,8.92l9.2-3.77c1.1-3.59,1.93-6.72,2.21-9.66,.28-2.85,.09-5.61-.18-8.28-.37-2.67-1.01-5.52-1.75-8.28l-.37-1.38c-.74-2.48-1.47-5.34-2.3-8.46l-9.38-35.51h22.91s.74-2.67,1.29-4.14,2.39-4.23,2.39-4.23h-29.16l-1.29-4.88c-.64-2.02-.92-3.86-1.2-5.61l-.09-.46c-.18-1.93,0-3.59,.46-5.34,.46-1.75,1.38-3.31,2.67-4.88,1.29-1.56,4.05-3.4,5.34-4.23,2.3-1.38,4.6-2.39,7.18-3.13l5.89,21.71h8.46l-8.1-31Z" fill="#eb3024"/></g></svg>